<svg width="512" height="512" viewBox="0 0 512 512" fill="none" xmlns="http://www.w3.org/2000/svg">
<g clip-path="url(#clip0_438_226)">
<path d="M407 0H105C47.103 0 0 47.103 0 105V407C0 464.897 47.103 512 105 512H407C464.897 512 512 464.897 512 407V105C512 47.103 464.897 0 407 0ZM374.704 146L255.958 264.745L137.213 146H374.704ZM102.754 338.033C101.638 335.935 101 333.542 101 331V161C101 158.458 101.638 156.065 102.754 153.967L194.787 246L102.754 338.033ZM137.213 346L216 267.213L255.959 307.172L295.959 267.172L374.787 346H137.213ZM411 331C411 333.542 410.362 335.935 409.246 338.033L317.171 245.959L409.218 153.911C410.354 156.022 411 158.435 411 161V331Z" fill="#EBE3D5"/>
</g>
<defs>
<clipPath id="clip0_438_226">
<rect width="512" height="512" fill="white"/>
</clipPath>
</defs>
</svg>
