<svg width="683" height="683" viewBox="0 0 683 683" fill="none" xmlns="http://www.w3.org/2000/svg">
<g clip-path="url(#clip0_438_222)">
<path d="M401.333 341.333C401.333 374.469 374.469 401.333 341.333 401.333C308.198 401.333 281.333 374.469 281.333 341.333C281.333 308.198 308.198 281.333 341.333 281.333C374.469 281.333 401.333 308.198 401.333 341.333Z" fill="#EBE3D5"/>
<path d="M442.667 160H240C195.885 160 160 195.885 160 240V442.667C160 486.781 195.885 522.667 240 522.667H442.667C486.781 522.667 522.667 486.781 522.667 442.667V240C522.667 195.885 486.781 160 442.667 160ZM341.333 441.333C286.193 441.333 241.333 396.474 241.333 341.333C241.333 286.193 286.193 241.333 341.333 241.333C396.474 241.333 441.333 286.193 441.333 341.333C441.333 396.474 396.474 441.333 341.333 441.333ZM456 246.667C444.953 246.667 436 237.714 436 226.667C436 215.62 444.953 206.667 456 206.667C467.047 206.667 476 215.62 476 226.667C476 237.714 467.047 246.667 456 246.667Z" fill="#EBE3D5"/>
<path d="M502.667 0H180C80.75 0 0 80.75 0 180V502.667C0 601.917 80.75 682.667 180 682.667H502.667C601.917 682.667 682.667 601.917 682.667 502.667V180C682.667 80.75 601.917 0 502.667 0ZM562.667 442.667C562.667 508.833 508.833 562.667 442.667 562.667H240C173.833 562.667 120 508.833 120 442.667V240C120 173.833 173.833 120 240 120H442.667C508.833 120 562.667 173.833 562.667 240V442.667Z" fill="#EBE3D5"/>
</g>
<defs>
<clipPath id="clip0_438_222">
<rect width="682.667" height="682.667" fill="white"/>
</clipPath>
</defs>
</svg>
