<svg width="505" height="505" viewBox="0 0 505 505" fill="none" xmlns="http://www.w3.org/2000/svg">
<path d="M377.6 0.199951H126.4C56.8 0.199951 0 57 0 126.6V378.2C0 447.4 56.8 504.2 126.4 504.2H378C447.6 504.2 504.4 447.4 504.4 377.8V126.6C504 57 447.2 0.199951 377.6 0.199951ZM168 408.2H96V200.2H168V408.2ZM131.6 168.2C111.2 168.2 94.8 151.8 94.8 131.4C94.8 111 111.2 94.6 131.6 94.6C152 94.6 168.4 111 168.4 131.4C168 151.8 151.6 168.2 131.6 168.2ZM408.4 408.2H408H348V307.4C348 283 344.8 251.8 311.6 251.8C277.6 251.8 272 278.2 272 305.8V408.2H212V200.2H268V228.2H269.6C278.4 212.2 298.8 199.8 330.8 199.8C396.8 199.8 408.4 237.8 408.4 294.2V408.2Z" fill="#EBE3D5"/>
</svg>
