<svg width="996" height="233" viewBox="0 0 996 233" fill="none" xmlns="http://www.w3.org/2000/svg">
<g clip-path="url(#clip0_437_218)">
<path d="M48.3899 0L59.1299 18.61L69.8799 0H48.3899Z" fill="white"/>
<path d="M48.3899 37.22H69.8699L80.6099 55.83H59.1199L48.3899 37.22Z" fill="white"/>
<path d="M225.48 232.52H158.37L109.36 167.3H71.9999V232.53H16.1599V111.47H128.97C144.04 111.47 156.31 99.51 156.77 84.55V82.74C156.31 67.78 144.04 55.82 128.97 55.82H80.6199L91.3599 37.21H69.8699L59.1299 18.6H80.6199L69.8699 0H129C175.19 0 212.65 37.45 212.65 83.65C212.65 115.4 194.96 143 168.91 157.18L225.48 232.52Z" fill="white"/>
<path d="M39.4199 19.6399H57.3599L48.3899 35.1699L39.4199 19.6399Z" fill="white"/>
<path d="M8.96997 35.17L16.16 22.72L23.35 35.17H8.96997Z" fill="white"/>
<path d="M30.45 39.28H44.84L37.6399 51.73L30.45 39.28Z" fill="white"/>
<path d="M19.71 16.5601L26.9 4.1001L34.09 16.5601H19.71Z" fill="white"/>
<path d="M0 15.5299L5.41 6.15991L10.83 15.5299H0Z" fill="white"/>
<path d="M329.96 105.94H238.43V137.42H329.96V105.94Z" fill="white"/>
<path d="M238.43 198.07H341.31V166.3L238.43 166.23V198.07Z" fill="white"/>
<path d="M341.31 45H238.43V76.77H341.31V45Z" fill="white"/>
<path d="M356.03 198.07H394.19L441.45 105.27L488.71 198.07H526.88L441.45 34.45L356.03 198.07Z" fill="white"/>
<path d="M579.01 45H544.2V198.07H643.3V166.3H579.01V45Z" fill="white"/>
<path d="M805.45 142.57L815.48 198.07H850.97L832.65 100.16L805.45 142.57Z" fill="white"/>
<path d="M822.84 46.8099L755.07 136.52L692.61 46.6499L658.49 198.07H694.23L707.55 125.25L754.92 199.12L829.14 80.7299L822.84 46.8099Z" fill="white"/>
<path d="M933.26 104.06C907.47 99.5101 902.29 95.0401 902.29 89.3201C902.29 76.4801 921.86 75.0901 930.27 75.0901C944.59 75.0901 956.63 79.4901 967.1 88.5401L972.71 93.3901L989.75 64.6701L986.01 61.5701C966.07 45.0901 940.72 43.3101 930.75 43.3101C887.05 43.3101 867.49 66.8401 867.49 90.1501C867.49 115.1 886.56 129.14 929.31 135.65C949.06 138.71 960.39 144.54 960.39 151.64C960.39 166.38 938.84 167.97 929.57 167.97C912.78 167.97 896.1 161.01 883.81 148.88L878.31 143.46L860.63 171.69L863.59 174.86C865.97 177.41 888.03 199.75 929.1 199.75C968.02 199.75 995.2 179.62 995.2 150.8C995.2 119.03 963.9 109.34 933.27 104.05L933.26 104.06Z" fill="white"/>
</g>
<defs>
<clipPath id="clip0_437_218">
<rect width="995.19" height="232.53" fill="white"/>
</clipPath>
</defs>
</svg>
