<?xml version="1.0" standalone="no"?>
<!DOCTYPE svg PUBLIC "-//W3C//DTD SVG 20010904//EN"
 "http://www.w3.org/TR/2001/REC-SVG-20010904/DTD/svg10.dtd">
<svg version="1.0" xmlns="http://www.w3.org/2000/svg"
 width="700.000000pt" height="700.000000pt" viewBox="0 0 700.000000 700.000000"
 preserveAspectRatio="xMidYMid meet">
<metadata>
Created by potrace 1.14, written by Peter Selinger 2001-2017
</metadata>
<g transform="translate(0.000000,700.000000) scale(0.100000,-0.100000)"
fill="#000000" stroke="none">
<path d="M3278 6995 c-1 -1 -42 -5 -89 -9 -47 -4 -95 -8 -106 -10 -11 -3 -44
-7 -74 -11 -313 -38 -709 -158 -1024 -311 -180 -87 -448 -247 -555 -331 -8 -6
-51 -40 -95 -74 -353 -275 -673 -651 -897 -1054 -49 -87 -148 -289 -148 -301
0 -2 -9 -23 -20 -47 -57 -123 -157 -435 -186 -582 -2 -11 -10 -54 -19 -95 -22
-115 -30 -160 -41 -255 -26 -230 -26 -667 1 -826 2 -13 6 -46 9 -74 9 -78 22
-152 51 -285 21 -96 91 -339 114 -395 5 -11 25 -65 46 -120 63 -166 249 -531
312 -610 4 -6 34 -49 65 -95 170 -255 433 -535 708 -755 92 -74 370 -265 386
-265 4 0 15 -6 23 -14 26 -22 298 -158 408 -204 146 -60 384 -141 459 -156 10
-2 57 -13 104 -25 109 -26 200 -43 299 -57 25 -3 57 -8 71 -10 163 -25 682
-25 842 1 13 2 46 7 73 10 71 10 87 13 115 18 14 3 43 8 65 12 104 19 292 68
435 115 178 57 568 235 660 300 15 11 33 20 39 20 6 0 11 5 11 10 0 6 5 10 10
10 15 0 220 141 330 227 152 118 324 280 450 422 36 41 70 79 76 85 6 6 48 61
94 121 150 197 277 405 383 628 26 53 47 99 47 102 0 2 11 28 24 57 57 127
151 421 182 573 17 81 54 301 59 350 4 33 9 71 11 85 9 47 11 525 3 605 -15
165 -21 220 -24 225 -2 3 -6 30 -10 60 -4 30 -22 123 -40 205 -53 232 -102
385 -197 610 -422 993 -1304 1752 -2346 2014 -121 31 -244 57 -312 66 -19 3
-46 7 -60 10 -13 2 -52 7 -86 11 -33 3 -74 8 -90 10 -32 5 -540 14 -546 9z
m415 -1579 c71 -6 232 -36 329 -60 47 -12 169 -61 232 -92 268 -135 453 -348
540 -624 33 -104 49 -193 60 -334 7 -89 58 -81 -504 -81 -274 0 -501 3 -503 5
-3 3 -8 27 -11 54 -9 67 -49 148 -92 185 -128 113 -369 130 -527 38 -137 -81
-149 -265 -23 -361 87 -66 184 -101 526 -191 448 -118 631 -187 825 -314 54
-35 57 -38 130 -104 230 -210 328 -510 292 -895 -27 -293 -159 -548 -380 -736
-205 -174 -537 -297 -867 -323 -155 -12 -452 -6 -534 11 -6 2 -29 6 -51 10
-451 82 -751 273 -952 604 -32 53 -98 208 -107 253 -37 175 -45 227 -49 302
l-4 87 524 0 523 0 1 -27 c2 -77 35 -163 84 -221 147 -174 496 -188 674 -27
83 76 112 226 59 311 -76 119 -176 163 -642 280 -323 81 -478 133 -641 216
-292 149 -472 394 -521 711 -9 60 -10 301 -2 370 16 120 51 235 109 351 174
345 560 563 1065 602 49 3 90 7 91 8 6 5 268 -2 346 -8z"/>
</g>
</svg>
